<?xml version="1.0" encoding="UTF-8"?>
<!DOCTYPE svg PUBLIC "-//W3C//DTD SVG 1.1//EN" "http://www.w3.org/Graphics/SVG/1.1/DTD/svg11.dtd">
<!-- Creator: CorelDRAW -->
<svg xmlns="http://www.w3.org/2000/svg" xml:space="preserve" width="1240" height="1110" version="1.1" style="shape-rendering:geometricPrecision; text-rendering:geometricPrecision; image-rendering:optimizeQuality; fill-rule:evenodd; clip-rule:evenodd"
viewBox="5400 2700 12400 11100"
 xmlns:xlink="http://www.w3.org/1999/xlink"
 xmlns:xodm="http://www.corel.com/coreldraw/odm/2003">
 <defs>
  <style type="text/css">
   <![CDATA[
    .fil0 {fill:none}
    .fil1 {fill:black;fill-rule:nonzero}
   ]]>
  </style>
 </defs>
 <g id="Layer_x0020_1">
  <metadata id="CorelCorpID_0Corel-Layer"/>
  <rect class="fil0" y="-0" width="23384.98" height="16534.84"/>
  <path class="fil1" d="M11127.58 11084.39c0,90.35 16.26,176.82 45.93,256.82l-775.53 1315.41c-655.06,13.25 -995.85,12.22 -1182.81,-95.72l-1.83 0c-198.65,-114.67 -382.46,-449.18 -750.09,-1118.18 -139.05,-253.09 -303.72,-552.69 -555.28,-988.45 -222.28,-385.02 -416.39,-705.33 -580.27,-975.84 -393.59,-649.58 -590.38,-974.42 -590.38,-1210.59 0,-174.4 107.33,-397.13 321.95,-763.33l1961.54 3372.67c-31.26,82.13 -48.4,171.29 -48.4,264.39 0,205.27 83.22,391.15 217.77,525.64 134.52,134.52 320.37,217.77 525.67,217.77 205.24,0 391.12,-83.25 525.66,-217.77 134.49,-134.49 217.74,-320.37 217.74,-525.64 0,-205.27 -83.25,-391.12 -217.74,-525.66 -109.22,-109.22 -252.23,-184.56 -411.99,-209.11l-2772.55 -4721.28c-221.83,382.68 -387.19,655.62 -528.06,888.11 -486.39,802.8 -729.6,1204.21 -729.6,1694.22 0,490.07 243.21,891.45 729.6,1694.23 159.74,263.66 348.89,575.82 569.28,957.52 191.1,331.02 382.6,679.5 544.34,973.78 449.68,818.42 674.77,1228.1 1104.1,1476.51l-0.47 0.83c427.11,246.58 895.24,236.67 1831.45,216.88 81.61,-1.73 167.64,-3.51 262.16,-5.24l310.29 -533.45 2.45 0.36 708.47 -1226.9 4.65 0.06c407.6,0 738.03,-330.44 738.03,-738.03 0,-407.6 -330.44,-738.03 -738.03,-738.03 -407.62,0 -738.03,330.44 -738.03,738.03zm3286.97 -3736.2c77.8,-44.92 144.29,-101.87 198.56,-167.14l1528.23 13.97c338.98,560.65 508.52,856.3 508.52,1072.17l0.94 1.62c0,229.37 -197.78,555.86 -593.38,1208.7 -149.63,246.94 -326.77,539.3 -578.38,975.12 -222.31,384.99 -402.61,713.23 -554.97,990.42 -365.73,665.64 -548.65,998.47 -753.17,1116.6 -151.03,87.17 -397.63,105.63 -822.06,102.82l1940.05 -3385.08c86.78,-13.97 172.51,-43.7 253.17,-90.26 177.77,-102.62 297.12,-267.65 346.33,-451.43 49.24,-183.73 28.42,-386.33 -74.26,-564.1 -102.62,-177.75 -267.62,-297.1 -451.4,-346.33 -183.75,-49.27 -386.33,-28.42 -564.13,74.23 -177.74,102.62 -297.12,267.65 -346.33,451.43 -39.94,149.16 -33.76,310.71 24.91,461.31l-2702.49 4761.75c442.33,0.75 761.38,7.49 1033.15,13.25 938.43,19.85 1407.68,29.75 1832.06,-215.26 424.37,-245.02 650.41,-656.34 1102.46,-1478.96 148.46,-270.18 324.2,-590.07 544.59,-971.78 191.1,-331 397.18,-671.12 571.17,-958.28 483.92,-798.68 726.15,-1198.46 726.62,-1694.45l0.94 0c0,-493.18 -242.68,-893.65 -727.9,-1694.53 -42.28,-69.8 -86.87,-143.42 -135.57,-224.45l-617.15 -1.95 -0.89 -2.28 -1416.56 -0.11 -2.87 -5.18c-203.82,-352.98 -655.2,-473.95 -1008.21,-270.15 -352.98,203.8 -473.92,655.17 -270.15,1008.18 203.82,352.99 655.2,473.92 1008.18,270.15zm1020.88 1266.15c-18.2,67.8 -62.26,128.73 -127.87,166.64 -65.66,37.85 -140.48,45.56 -208.28,27.42 -67.8,-18.18 -128.7,-62.24 -166.61,-127.87 -37.88,-65.63 -45.59,-140.42 -27.44,-208.22 18.2,-67.83 62.26,-128.76 127.89,-166.67 65.63,-37.85 140.42,-45.56 208.25,-27.39 67.8,18.15 128.7,62.24 166.61,127.87 37.88,65.6 45.59,140.39 27.44,208.22zm-5900 -2244.63c-77.88,-44.92 -160.51,-74.06 -244.24,-88.43l-751.42 -1329.36c316.08,-573.9 487.36,-868.57 674.29,-976.51l0.92 -1.56c198.67,-114.73 580.27,-106.66 1343.44,-90.52 288.69,6.15 630.48,13.33 1133.66,13.36 444.59,0 819.03,-7.93 1135.25,-14.61 759.35,-16.06 1139.06,-24.1 1343.58,93.99 151.02,87.18 290.27,291.5 500.08,660.46l-3901.56 12.44c-55.5,-68.14 -124.14,-127.56 -204.77,-174.1 -177.8,-102.65 -380.37,-123.5 -564.13,-74.23 -183.73,49.21 -348.75,168.53 -451.4,346.33 -102.62,177.75 -123.5,380.37 -74.23,564.1 49.24,183.78 168.56,348.81 346.36,451.43 177.74,102.62 380.34,123.47 564.1,74.23 149.13,-39.97 285.96,-126.14 387.05,-252.2l5475.04 -40.47c-220.52,-383.46 -374.16,-663.11 -505.09,-901.36 -452.02,-822.65 -678.08,-1233.97 -1102.46,-1478.99 -424.38,-244.99 -893.63,-235.11 -1832.06,-215.24 -308.17,6.51 -673.1,14.25 -1113.87,14.25 -382.21,-0.06 -779.78,-8.43 -1115.48,-15.53 -933.59,-19.76 -1400.94,-29.61 -1830.75,217.96l-0.47 -0.78c-427.13,246.55 -652.58,656.9 -1103.54,1477.6 -39.27,71.51 -80.77,146.94 -126.56,229.66l306.86 535.43 -1.56 1.92 707.69 1225.96 -2.95 4.9c-203.77,352.98 -82.83,804.39 270.18,1008.18 352.96,203.8 804.36,82.83 1008.16,-270.15 203.8,-352.98 82.83,-804.36 -270.12,-1008.18zm586.51 -1516.09c67.8,-18.15 142.57,-10.44 208.22,27.42 65.6,37.91 109.72,98.84 127.87,166.64 18.18,67.83 10.46,142.62 -27.44,208.22 -37.85,65.66 -98.81,109.72 -166.61,127.87 -67.8,18.17 -142.62,10.46 -208.22,-27.39 -65.66,-37.91 -109.72,-98.84 -127.87,-166.67 -18.2,-67.8 -10.5,-142.59 27.42,-208.22 37.88,-65.6 98.78,-109.69 166.64,-127.87zm-600.14 6482c-49.66,-49.66 -80.36,-118.29 -80.36,-194.06 0,-75.79 30.7,-144.46 80.36,-194.05 49.63,-49.66 118.26,-80.38 194.06,-80.38 75.76,0 144.4,30.73 194.05,80.38 49.6,49.6 80.36,118.26 80.36,194.05 0,75.76 -30.75,144.4 -80.36,194.06 -49.65,49.6 -118.29,80.36 -194.05,80.36 -75.79,0 -144.43,-30.75 -194.06,-80.36z"/>
 </g>
</svg>
