<?xml version="1.0" encoding="UTF-8"?>
<!DOCTYPE svg PUBLIC "-//W3C//DTD SVG 1.1//EN" "http://www.w3.org/Graphics/SVG/1.1/DTD/svg11.dtd">
<!-- Creator: CorelDRAW -->
<svg xmlns="http://www.w3.org/2000/svg" xml:space="preserve" width="23.3858in" height="16.5354in" version="1.1" style="shape-rendering:geometricPrecision; text-rendering:geometricPrecision; image-rendering:optimizeQuality; fill-rule:evenodd; clip-rule:evenodd"
viewBox="0 0 23384.98 16534.84"
 xmlns:xlink="http://www.w3.org/1999/xlink"
 xmlns:xodm="http://www.corel.com/coreldraw/odm/2003">
 <defs>
  <style type="text/css">
   <![CDATA[
    .fil0 {fill:none}
    .fil1 {fill:black}
   ]]>
  </style>
 </defs>
 <g id="Layer_x0020_1">
  <metadata id="CorelCorpID_0Corel-Layer"/>
  <rect class="fil0" y="-0" width="23384.98" height="16534.84"/>
  <path class="fil1" d="M4790.98 12426.35c-345.65,0 -632.99,-108.15 -862.01,-324.45 -229.02,-220.54 -343.53,-498.34 -343.53,-833.38 0,-339.29 113.45,-617.09 340.35,-833.39 229.02,-216.3 517.42,-324.45 865.19,-324.45 216.3,0 412.45,46.65 588.46,139.96l0 461.22c-171.77,-114.51 -366.86,-171.77 -585.28,-171.77 -209.94,0 -387.01,68.92 -531.21,206.76 -139.96,135.72 -209.94,309.6 -209.94,521.66 0,212.06 72.1,387 216.3,524.84 142.08,135.72 323.39,203.58 543.93,203.58 243.87,0 447.44,-64.68 610.72,-194.03l0 461.22c-180.25,108.15 -391.25,162.23 -632.99,162.23zm6619.71 -5825.13c0,45.07 8.11,88.21 22.92,128.12l-386.89 656.22c-326.8,6.61 -496.8,6.1 -590.07,-47.75l-0.92 0c-99.1,-57.21 -190.8,-224.08 -374.2,-557.82 -69.37,-126.26 -151.52,-275.72 -277.01,-493.11 -110.89,-192.08 -207.73,-351.87 -289.48,-486.82 -196.36,-324.06 -294.52,-486.12 -294.52,-603.93 0,-87.01 53.54,-198.11 160.61,-380.81l978.56 1682.52c-15.59,40.97 -24.15,85.45 -24.15,131.89 0,102.41 41.52,195.13 108.64,262.23 67.11,67.11 159.82,108.64 262.24,108.64 102.39,0 195.12,-41.53 262.24,-108.64 67.1,-67.09 108.62,-159.82 108.62,-262.23 0,-102.4 -41.53,-195.11 -108.62,-262.24 -54.49,-54.48 -125.83,-92.07 -205.53,-104.32l-1383.14 -2355.3c-110.67,190.91 -193.16,327.07 -263.43,443.05 -242.64,400.5 -363.98,600.75 -363.98,845.2 0,244.48 121.33,444.72 363.98,845.2 79.69,131.53 174.05,287.26 284,477.68 95.34,165.14 190.86,338.98 271.55,485.79 224.33,408.28 336.62,612.66 550.8,736.59l-0.24 0.42c213.07,123.01 446.61,118.07 913.65,108.19 40.71,-0.86 83.63,-1.75 130.78,-2.61l154.79 -266.12 1.22 0.18 353.44 -612.06 2.32 0.03c203.34,0 368.18,-164.84 368.18,-368.18 0,-203.34 -164.84,-368.18 -368.18,-368.18 -203.35,0 -368.18,164.84 -368.18,368.18zm1639.77 -1863.87c38.81,-22.41 71.98,-50.82 99.06,-83.38l762.38 6.97c169.11,279.69 253.68,427.18 253.68,534.87l0.47 0.81c0,114.43 -98.67,277.3 -296.02,602.98 -74.65,123.19 -163.01,269.04 -288.53,486.46 -110.91,192.06 -200.85,355.81 -276.86,494.09 -182.45,332.07 -273.7,498.11 -375.73,557.04 -75.34,43.48 -198.36,52.69 -410.1,51.29l967.83 -1688.71c43.3,-6.97 86.07,-21.8 126.3,-45.03 88.69,-51.2 148.23,-133.52 172.78,-225.2 24.56,-91.66 14.17,-192.73 -37.05,-281.42 -51.2,-88.67 -133.51,-148.21 -225.19,-172.77 -91.67,-24.58 -192.73,-14.18 -281.43,37.03 -88.67,51.2 -148.23,133.52 -172.77,225.2 -19.93,74.41 -16.85,155 12.42,230.13l-1348.19 2375.49c220.66,0.38 379.83,3.74 515.41,6.61 468.15,9.9 702.25,14.85 913.96,-107.39 211.7,-122.23 324.47,-327.43 549.98,-737.8 74.06,-134.79 161.73,-294.37 271.68,-484.79 95.34,-165.12 198.14,-334.8 284.94,-478.06 241.41,-398.44 362.25,-597.87 362.49,-845.31l0.47 0c0,-246.03 -121.07,-445.81 -363.12,-845.35 -21.09,-34.83 -43.34,-71.55 -67.64,-111.97l-307.88 -0.97 -0.44 -1.14 -706.68 -0.06 -1.43 -2.58c-101.68,-176.1 -326.86,-236.44 -502.97,-134.77 -176.09,101.67 -236.42,326.84 -134.77,502.95 101.68,176.09 326.86,236.42 502.95,134.77zm509.29 631.64c-9.08,33.83 -31.07,64.22 -63.79,83.13 -32.75,18.89 -70.08,22.73 -103.91,13.68 -33.82,-9.07 -64.21,-31.05 -83.12,-63.79 -18.89,-32.74 -22.74,-70.05 -13.69,-103.88 9.08,-33.84 31.06,-64.23 63.8,-83.14 32.74,-18.89 70.05,-22.73 103.89,-13.66 33.83,9.05 64.21,31.05 83.12,63.79 18.9,32.73 22.74,70.04 13.69,103.88zm-2943.33 -1119.78c-38.85,-22.41 -80.08,-36.95 -121.85,-44.11l-374.86 -663.17c157.68,-286.3 243.14,-433.31 336.39,-487.15l0.46 -0.78c99.12,-57.24 289.49,-53.21 670.2,-45.16 144.02,3.07 314.53,6.65 565.55,6.67 221.79,0 408.59,-3.95 566.34,-7.29 378.81,-8.01 568.24,-12.02 670.27,46.9 75.34,43.48 144.81,145.42 249.48,329.48l-1946.37 6.2c-27.69,-33.99 -61.93,-63.64 -102.15,-86.85 -88.7,-51.21 -189.76,-61.61 -281.43,-37.03 -91.66,24.55 -173.98,84.08 -225.19,172.78 -51.2,88.67 -61.6,189.75 -37.03,281.41 24.57,91.68 84.09,174.01 172.79,225.2 88.67,51.2 189.74,61.6 281.41,37.03 74.4,-19.94 142.66,-62.93 193.09,-125.82l2731.33 -20.19c-110.01,-191.3 -186.66,-330.8 -251.98,-449.66 -225.5,-410.4 -338.28,-615.59 -549.98,-737.82 -211.71,-122.22 -445.81,-117.29 -913.96,-107.38 -153.74,3.25 -335.79,7.11 -555.68,7.11 -190.67,-0.03 -389.01,-4.21 -556.48,-7.75 -465.74,-9.86 -698.89,-14.78 -913.3,108.74l-0.24 -0.39c-213.08,122.99 -325.55,327.7 -550.52,737.12 -19.59,35.67 -40.29,73.3 -63.13,114.57l153.09 267.11 -0.78 0.96 353.05 611.59 -1.47 2.44c-101.65,176.1 -41.32,401.29 134.78,502.96 176.08,101.67 401.27,41.32 502.94,-134.77 101.67,-176.1 41.33,-401.27 -134.75,-502.95zm292.59 -756.33c33.82,-9.05 71.12,-5.21 103.88,13.68 32.73,18.91 54.73,49.31 63.79,83.13 9.07,33.84 5.22,71.15 -13.69,103.88 -18.89,32.75 -49.29,54.73 -83.11,63.79 -33.83,9.07 -71.15,5.22 -103.88,-13.66 -32.75,-18.91 -54.74,-49.31 -63.79,-83.14 -9.08,-33.83 -5.24,-71.14 13.68,-103.88 18.9,-32.73 49.28,-54.72 83.13,-63.79zm-299.39 3233.67c-24.77,-24.77 -40.09,-59.01 -40.09,-96.81 0,-37.81 15.32,-72.06 40.09,-96.8 24.76,-24.77 59,-40.1 96.81,-40.1 37.8,0 72.04,15.33 96.81,40.1 24.74,24.74 40.09,59 40.09,96.8 0,37.8 -15.35,72.04 -40.09,96.81 -24.77,24.74 -59.01,40.09 -96.81,40.09 -37.81,0 -72.05,-15.35 -96.81,-40.09zm8644.85 7271c-134.94,0 -248.53,-32.03 -340.77,-96.08l0 -192.16c37.58,32.46 87.11,60.64 148.6,84.55 62.34,23.06 123.84,34.59 184.47,34.59 50.39,0 91.81,-9.18 124.27,-27.54 32.45,-18.36 48.68,-43.77 48.68,-76.23 0,-35.01 -15.37,-59.79 -46.12,-74.3 -12.81,-7.68 -29.89,-15.37 -51.25,-23.06l-30.74 -10.25 -71.74 -21.78 -66.62 -21.78c-9.4,-2.56 -29.47,-9.82 -60.21,-21.78 -26.48,-10.25 -45.69,-19.22 -57.65,-26.9 -44.41,-30.75 -72.6,-56.8 -84.55,-78.15 -20.5,-40.99 -30.74,-82.84 -30.74,-125.55 0,-79.43 30.32,-141.77 90.95,-187.04 60.64,-46.12 143.06,-69.18 247.25,-69.18 105.05,0 202.84,24.77 293.37,74.3l0 179.35c-91.38,-56.37 -188.32,-84.55 -290.8,-84.55 -101.63,0 -152.45,29.46 -152.45,88.39 0,25.62 15.8,46.12 47.4,61.49 18.79,10.25 43.13,19.22 73.02,26.9 40.14,11.1 72.59,20.5 97.36,28.18 74.3,23.06 139.21,54.23 194.72,93.52 59.79,41.85 89.68,104.19 89.68,187.04 0,86.26 -33.74,154.16 -101.21,203.69 -67.47,49.53 -152.45,74.3 -254.94,74.3zm-1727.41 -17.94l-180.64 0 0 -896.76 157.57 0 452.22 573.92 0 -573.92 179.35 0 0 896.76 -152.45 0 -456.07 -576.49 0 576.49zm-1633.9 -238.28c52.95,55.51 119.14,83.27 198.57,83.27 78.58,0 144.34,-27.76 197.29,-83.27 52.95,-55.51 79.43,-125.55 79.43,-210.09 0,-84.55 -26.48,-154.58 -79.43,-210.1 -52.95,-55.51 -118.71,-83.27 -197.29,-83.27 -79.43,0 -145.62,27.76 -198.57,83.27 -52.1,54.66 -78.15,124.69 -78.15,210.1 0,85.4 26.05,155.44 78.15,210.09zm-266.46 -210.09c0,-131.53 43.98,-241.7 131.95,-330.52 87.97,-90.53 199,-135.8 333.08,-135.8 133.24,0 243.83,45.27 331.8,135.8 88.82,90.53 133.23,200.7 133.23,330.52 0,128.96 -44.41,239.13 -133.23,330.52 -87.97,90.53 -198.57,135.79 -331.8,135.79 -134.09,0 -245.11,-45.27 -333.08,-135.79 -87.97,-90.53 -131.95,-200.71 -131.95,-330.52zm-796.07 448.38l-183.2 0 0 -896.76 183.2 0 0 896.76zm-1701.79 -731.5l0 -165.26 752 0 0 165.26 -284.4 0 0 731.5 -184.48 0 0 -731.5 -283.12 0zm-1132.99 749.43c-111.88,0 -203.69,-34.59 -275.43,-103.77 -71.74,-69.18 -107.61,-166.12 -107.61,-290.81l0 -520.12 183.19 0 0 526.52c0,69.18 18.15,122.35 54.45,159.5 36.3,37.15 84.76,55.73 145.4,55.73 61.49,0 110.39,-18.58 146.68,-55.73 36.3,-37.15 54.45,-90.32 54.45,-159.5l0 -526.52 184.48 0 0 520.12c0,124.69 -36.3,221.63 -108.89,290.81 -71.74,69.18 -163.98,103.77 -276.71,103.77zm-1127.86 -17.94l-639.26 0 0 -896.76 184.48 0 0 731.5 454.78 0 0 165.26zm-2092.52 -238.28c52.95,55.51 119.14,83.27 198.57,83.27 78.58,0 144.34,-27.76 197.29,-83.27 52.95,-55.51 79.43,-125.55 79.43,-210.09 0,-84.55 -26.48,-154.58 -79.43,-210.1 -52.95,-55.51 -118.71,-83.27 -197.29,-83.27 -79.43,0 -145.62,27.76 -198.57,83.27 -52.1,54.66 -78.15,124.69 -78.15,210.1 0,85.4 26.05,155.44 78.15,210.09zm-266.46 -210.09c0,-131.53 43.98,-241.7 131.95,-330.52 87.97,-90.53 199,-135.8 333.08,-135.8 133.24,0 243.83,45.27 331.8,135.8 88.82,90.53 133.23,200.7 133.23,330.52 0,128.96 -44.41,239.13 -133.23,330.52 -87.97,90.53 -198.57,135.79 -331.8,135.79 -134.09,0 -245.11,-45.27 -333.08,-135.79 -87.97,-90.53 -131.95,-200.71 -131.95,-330.52zm-1088.15 466.31c-134.94,0 -248.53,-32.03 -340.77,-96.08l0 -192.16c37.58,32.46 87.11,60.64 148.6,84.55 62.34,23.06 123.84,34.59 184.47,34.59 50.39,0 91.81,-9.18 124.27,-27.54 32.45,-18.36 48.68,-43.77 48.68,-76.23 0,-35.01 -15.37,-59.79 -46.12,-74.3 -12.81,-7.68 -29.89,-15.37 -51.25,-23.06l-30.74 -10.25 -71.74 -21.78 -66.62 -21.78c-9.4,-2.56 -29.47,-9.82 -60.21,-21.78 -26.48,-10.25 -45.69,-19.22 -57.65,-26.9 -44.41,-30.75 -72.6,-56.8 -84.55,-78.15 -20.5,-40.99 -30.74,-82.84 -30.74,-125.55 0,-79.43 30.32,-141.77 90.95,-187.04 60.64,-46.12 143.06,-69.18 247.25,-69.18 105.05,0 202.84,24.77 293.37,74.3l0 179.35c-91.38,-56.37 -188.32,-84.55 -290.8,-84.55 -101.63,0 -152.45,29.46 -152.45,88.39 0,25.62 15.8,46.12 47.4,61.49 18.79,10.25 43.13,19.22 73.02,26.9 40.14,11.1 72.59,20.5 97.36,28.18 74.3,23.06 139.21,54.23 194.72,93.52 59.79,41.85 89.68,104.19 89.68,187.04 0,86.26 -33.74,154.16 -101.21,203.69 -67.47,49.53 -152.45,74.3 -254.94,74.3zm-2696.43 -749.43l0 -165.26 752 0 0 165.26 -284.4 0 0 731.5 -184.48 0 0 -731.5 -283.12 0zm-766.6 731.5l-183.2 0 0 -896.76 183.2 0 0 896.76zm14957.45 -1553.26c-335.05,0 -617.09,-79.52 -846.11,-238.57l0 -477.13c93.3,80.58 216.3,150.56 368.98,209.94 154.8,57.25 307.48,85.88 458.04,85.88 125.11,0 227.96,-22.8 308.54,-68.39 80.58,-45.59 120.87,-108.68 120.87,-189.26 0,-86.95 -38.17,-148.44 -114.51,-184.49 -31.81,-19.08 -74.22,-38.17 -127.24,-57.25l-76.34 -25.45 -178.13 -54.07 -165.41 -54.08c-23.33,-6.36 -73.16,-24.38 -149.5,-54.07 -65.74,-25.45 -113.45,-47.71 -143.14,-66.8 -110.27,-76.34 -180.25,-141.02 -209.93,-194.03 -50.9,-101.79 -76.34,-205.7 -76.34,-311.72 0,-197.21 75.28,-352.01 225.84,-464.4 150.56,-114.51 355.2,-171.77 613.91,-171.77 260.83,0 503.64,61.49 728.41,184.49l0 445.32c-226.9,-139.96 -467.59,-209.94 -722.05,-209.94 -252.35,0 -378.52,73.16 -378.52,219.48 0,63.62 39.23,114.51 117.69,152.68 46.66,25.45 107.09,47.71 181.31,66.8 99.67,27.57 180.25,50.89 241.75,69.98 184.49,57.25 345.65,134.66 483.49,232.2 148.44,103.91 222.66,258.71 222.66,464.4 0,214.18 -83.76,382.76 -251.29,505.75 -167.53,123 -378.52,184.49 -632.99,184.49zm-2122.9 0c-335.05,0 -617.09,-79.52 -846.11,-238.57l0 -477.13c93.3,80.58 216.3,150.56 368.98,209.94 154.8,57.25 307.48,85.88 458.04,85.88 125.11,0 227.96,-22.8 308.54,-68.39 80.58,-45.59 120.87,-108.68 120.87,-189.26 0,-86.95 -38.17,-148.44 -114.51,-184.49 -31.81,-19.08 -74.22,-38.17 -127.24,-57.25l-76.34 -25.45 -178.13 -54.07 -165.41 -54.08c-23.33,-6.36 -73.16,-24.38 -149.5,-54.07 -65.74,-25.45 -113.45,-47.71 -143.14,-66.8 -110.27,-76.34 -180.25,-141.02 -209.93,-194.03 -50.9,-101.79 -76.34,-205.7 -76.34,-311.72 0,-197.21 75.28,-352.01 225.84,-464.4 150.56,-114.51 355.2,-171.77 613.91,-171.77 260.83,0 503.64,61.49 728.41,184.49l0 445.32c-226.9,-139.96 -467.59,-209.94 -722.05,-209.94 -252.35,0 -378.52,73.16 -378.52,219.48 0,63.62 39.23,114.51 117.69,152.68 46.66,25.45 107.09,47.71 181.31,66.8 99.67,27.57 180.25,50.89 241.75,69.98 184.49,57.25 345.65,134.66 483.49,232.2 148.44,103.91 222.66,258.71 222.66,464.4 0,214.18 -83.76,382.76 -251.29,505.75 -167.53,123 -378.52,184.49 -632.99,184.49zm-3023.09 -44.53l-480.31 0 954.26 -2239.32 438.96 0 954.26 2239.32 -486.67 0 -219.48 -515.3 -941.53 0 -219.48 515.3zm690.25 -1666.77l-327.63 772.95 652.07 0 -324.45 -772.95zm-2514.15 1666.77l-458.05 0 0 -2226.6 973.34 0c239.63,0 428.36,62.56 566.19,187.67 139.96,123 209.94,284.16 209.94,483.49 0,201.45 -69.98,363.68 -209.94,486.67 -137.83,125.11 -326.57,187.67 -566.19,187.67l-515.3 0 0 881.1zm0 -1825.81l0 553.47 483.49 0c110.27,0 196.15,-23.86 257.65,-71.57 61.5,-47.71 92.24,-116.1 92.24,-205.17 0,-89.06 -30.75,-157.45 -92.24,-205.17 -61.5,-47.71 -147.38,-71.57 -257.65,-71.57l-483.49 0zm-2813.15 1825.81l-458.05 0 0 -2226.6 454.87 0 645.71 922.45 645.71 -922.45 451.68 0 0 2226.6 -451.68 0 0 -1523.63 -512.12 715.69 -254.47 0 -521.66 -715.69 0 1523.63zm-2641.39 -591.64c131.48,137.84 295.82,206.76 493.03,206.76 195.1,0 358.38,-68.92 489.85,-206.76 131.48,-137.84 197.21,-311.72 197.21,-521.66 0,-209.94 -65.74,-383.82 -197.21,-521.66 -131.48,-137.84 -294.76,-206.76 -489.85,-206.76 -197.21,0 -361.56,68.92 -493.03,206.76 -129.35,135.72 -194.03,309.6 -194.03,521.66 0,212.06 64.68,385.94 194.03,521.66zm-661.62 -521.66c0,-326.57 109.21,-600.12 327.63,-820.66 218.42,-224.78 494.09,-337.17 827.02,-337.17 330.81,0 605.42,112.39 823.84,337.17 220.54,224.78 330.81,498.34 330.81,820.66 0,320.2 -110.27,593.76 -330.81,820.66 -218.42,224.78 -493.03,337.17 -823.84,337.17 -332.93,0 -608.6,-112.39 -827.02,-337.17 -218.42,-224.78 -327.63,-498.33 -327.63,-820.66z"/>
 </g>
</svg>
