<?xml version="1.0" encoding="UTF-8"?>
<!DOCTYPE svg PUBLIC "-//W3C//DTD SVG 1.1//EN" "http://www.w3.org/Graphics/SVG/1.1/DTD/svg11.dtd">
<!-- Creator: CorelDRAW -->
<svg xmlns="http://www.w3.org/2000/svg" xml:space="preserve" width="23.3858in" height="16.5354in" version="1.1" style="shape-rendering:geometricPrecision; text-rendering:geometricPrecision; image-rendering:optimizeQuality; fill-rule:evenodd; clip-rule:evenodd"
viewBox="0 0 23384.98 16534.84"
 xmlns:xlink="http://www.w3.org/1999/xlink"
 xmlns:xodm="http://www.corel.com/coreldraw/odm/2003">
 <defs>
  <style type="text/css">
   <![CDATA[
    .fil0 {fill:none}
    .fil1 {fill:black;fill-rule:nonzero}
   ]]>
  </style>
 </defs>
 <g id="Layer_x0020_1">
  <metadata id="CorelCorpID_0Corel-Layer"/>
  <rect class="fil0" y="-0" width="23384.98" height="16534.84"/>
  <g id="_2176758299552">
   <g>
    <path class="fil1" d="M8647.01 8596.17c-305.26,0 -559.02,-95.51 -761.28,-286.53 -202.26,-194.76 -303.38,-440.09 -303.38,-735.99 0,-299.64 100.19,-544.97 300.58,-735.99 202.26,-191.02 456.95,-286.53 764.08,-286.53 191.02,0 364.25,41.2 519.69,123.6l0 407.32c-151.69,-101.13 -323.98,-151.69 -516.88,-151.69 -185.4,0 -341.78,60.86 -469.12,182.59 -123.6,119.85 -185.4,273.42 -185.4,460.7 0,187.27 63.67,341.78 191.02,463.51 125.47,119.85 285.59,179.78 480.36,179.78 215.37,0 395.15,-57.12 539.35,-171.36l0 407.32c-159.18,95.51 -345.52,143.27 -559.02,143.27zm1501.19 -561.83c116.11,121.73 261.25,182.59 435.41,182.59 172.29,0 316.49,-60.86 432.61,-182.59 116.11,-121.73 174.16,-275.29 174.16,-460.7 0,-185.4 -58.05,-338.97 -174.16,-460.7 -116.11,-121.73 -260.31,-182.59 -432.61,-182.59 -174.17,0 -319.3,60.86 -435.41,182.59 -114.24,119.85 -171.36,273.42 -171.36,460.7 0,187.27 57.12,340.84 171.36,460.7zm-584.3 -460.7c0,-288.4 96.45,-529.99 289.34,-724.75 192.89,-198.51 436.35,-297.77 730.37,-297.77 292.15,0 534.67,99.26 727.56,297.77 194.76,198.51 292.15,440.09 292.15,724.75 0,282.79 -97.38,524.37 -292.15,724.75 -192.89,198.51 -435.42,297.77 -727.56,297.77 -294.02,0 -537.48,-99.26 -730.37,-297.77 -192.89,-198.51 -289.34,-440.09 -289.34,-724.75zm2916.99 983.19l-404.51 0 0 -1966.39 401.7 0 570.26 814.64 570.25 -814.64 398.9 0 0 1966.39 -398.9 0 0 -1345.57 -452.27 632.05 -224.73 0 -460.7 -632.05 0 1345.57zm2484.39 0l-404.51 0 0 -1966.39 859.59 0c211.62,0 378.29,55.25 500.03,165.74 123.6,108.62 185.4,250.95 185.4,426.98 0,177.91 -61.8,321.18 -185.4,429.8 -121.73,110.49 -288.4,165.74 -500.03,165.74l-455.08 0 0 778.13zm0 -1612.44l0 488.79 426.99 0c97.38,0 173.23,-21.07 227.54,-63.21 54.31,-42.14 81.46,-102.53 81.46,-181.19 0,-78.66 -27.15,-139.05 -81.46,-181.19 -54.31,-42.14 -130.16,-63.21 -227.54,-63.21l-426.99 0zm1610.75 1612.44l-424.18 0 842.74 -1977.62 387.66 0 842.73 1977.62 -429.8 0 -193.83 -455.08 -831.5 0 -193.83 455.08zm609.58 -1471.98l-289.34 682.62 575.87 0 -286.53 -682.62zm2060.21 1511.31c-295.89,0 -544.97,-70.23 -747.23,-210.69l0 -421.37c82.4,71.17 191.02,132.97 325.86,185.4 136.71,50.57 271.55,75.85 404.52,75.85 110.49,0 201.32,-20.13 272.48,-60.4 71.17,-40.27 106.75,-95.98 106.75,-167.14 0,-76.78 -33.71,-131.09 -101.13,-162.93 -28.09,-16.85 -65.54,-33.71 -112.36,-50.56l-67.42 -22.48 -157.31 -47.75 -146.07 -47.75c-20.6,-5.62 -64.61,-21.54 -132.03,-47.75 -58.05,-22.48 -100.19,-42.14 -126.41,-58.99 -97.38,-67.42 -159.18,-124.54 -185.4,-171.36 -44.95,-89.89 -67.42,-181.65 -67.42,-275.29 0,-174.17 66.48,-310.88 199.45,-410.13 132.96,-101.13 313.69,-151.7 542.16,-151.7 230.35,0 444.78,54.31 643.29,162.93l0 393.28c-200.39,-123.6 -412.94,-185.4 -637.67,-185.4 -222.86,0 -334.29,64.61 -334.29,193.83 0,56.18 34.64,101.13 103.94,134.84 41.2,22.48 94.58,42.14 160.12,58.99 88.02,24.35 159.18,44.95 213.49,61.8 162.93,50.57 305.26,118.92 426.99,205.06 131.09,91.77 196.64,228.48 196.64,410.13 0,189.15 -73.97,338.03 -221.92,446.65 -147.95,108.62 -334.29,162.93 -559.02,162.93zm1874.81 0c-295.89,0 -544.97,-70.23 -747.23,-210.69l0 -421.37c82.4,71.17 191.02,132.97 325.86,185.4 136.71,50.57 271.55,75.85 404.52,75.85 110.49,0 201.32,-20.13 272.48,-60.4 71.17,-40.27 106.75,-95.98 106.75,-167.14 0,-76.78 -33.71,-131.09 -101.13,-162.93 -28.09,-16.85 -65.54,-33.71 -112.36,-50.56l-67.42 -22.48 -157.31 -47.75 -146.07 -47.75c-20.6,-5.62 -64.61,-21.54 -132.03,-47.75 -58.05,-22.48 -100.19,-42.14 -126.41,-58.99 -97.38,-67.42 -159.18,-124.54 -185.4,-171.36 -44.95,-89.89 -67.42,-181.65 -67.42,-275.29 0,-174.17 66.48,-310.88 199.45,-410.13 132.96,-101.13 313.69,-151.7 542.16,-151.7 230.35,0 444.78,54.31 643.29,162.93l0 393.28c-200.39,-123.6 -412.94,-185.4 -637.67,-185.4 -222.86,0 -334.29,64.61 -334.29,193.83 0,56.18 34.64,101.13 103.94,134.84 41.2,22.48 94.58,42.14 160.12,58.99 88.02,24.35 159.18,44.95 213.49,61.8 162.93,50.57 305.26,118.92 426.99,205.06 131.09,91.77 196.64,228.48 196.64,410.13 0,189.15 -73.97,338.03 -221.92,446.65 -147.95,108.62 -334.29,162.93 -559.02,162.93z"/>
    <path class="fil1" d="M7744.13 9967.91l-161.79 0 0 -791.96 161.79 0 0 791.96zm677.01 -646.01l0 -145.95 664.11 0 0 145.95 -251.16 0 0 646.01 -162.92 0 0 -646.01 -250.03 0zm2381.3 661.85c-119.17,0 -219.48,-28.28 -300.94,-84.85l0 -169.71c33.19,28.66 76.93,53.55 131.24,74.67 55.06,20.37 109.37,30.55 162.92,30.55 44.5,0 81.08,-8.11 109.74,-24.33 28.66,-16.22 42.99,-38.66 42.99,-67.32 0,-30.92 -13.57,-52.8 -40.73,-65.62 -11.31,-6.79 -26.4,-13.57 -45.26,-20.37l-27.15 -9.05 -63.36 -19.23 -58.83 -19.24c-8.3,-2.26 -26.02,-8.67 -53.18,-19.23 -23.38,-9.05 -40.35,-16.97 -50.91,-23.76 -39.22,-27.15 -64.11,-50.16 -74.67,-69.01 -18.1,-36.2 -27.15,-73.16 -27.15,-110.87 0,-70.14 26.77,-125.2 80.33,-165.18 53.55,-40.73 126.33,-61.09 218.35,-61.09 92.77,0 179.13,21.87 259.08,65.62l0 158.39c-80.71,-49.78 -166.31,-74.67 -256.82,-74.67 -89.75,0 -134.63,26.02 -134.63,78.06 0,22.63 13.95,40.73 41.86,54.31 16.59,9.05 38.09,16.97 64.49,23.76 35.45,9.8 64.11,18.1 85.99,24.89 65.62,20.37 122.94,47.9 171.97,82.59 52.8,36.96 79.19,92.02 79.19,165.18 0,76.18 -29.79,136.14 -89.37,179.89 -59.59,43.75 -134.63,65.62 -225.15,65.62zm1196.31 -226.27c46.77,49.03 105.22,73.54 175.36,73.54 69.39,0 127.47,-24.51 174.23,-73.54 46.76,-49.03 70.14,-110.87 70.14,-185.54 0,-74.67 -23.38,-136.52 -70.14,-185.54 -46.76,-49.03 -104.84,-73.54 -174.23,-73.54 -70.15,0 -128.6,24.51 -175.36,73.54 -46.01,48.27 -69.01,110.12 -69.01,185.54 0,75.43 23.01,137.27 69.01,185.54zm-235.32 -185.54c0,-116.15 38.85,-213.45 116.53,-291.89 77.69,-79.95 175.74,-119.92 294.15,-119.92 117.66,0 215.33,39.97 293.02,119.92 78.44,79.95 117.67,177.25 117.67,291.89 0,113.89 -39.22,211.19 -117.67,291.89 -77.69,79.95 -175.36,119.92 -293.02,119.92 -118.42,0 -216.47,-39.97 -294.15,-119.92 -77.69,-79.95 -116.53,-177.25 -116.53,-291.89zm2083.3 395.98l-564.55 0 0 -791.96 162.92 0 0 646.01 401.64 0 0 145.95zm996.05 15.84c-98.8,0 -179.89,-30.55 -243.24,-91.64 -63.36,-61.1 -95.03,-146.7 -95.03,-256.82l0 -459.33 161.79 0 0 464.99c0,61.09 16.03,108.05 48.08,140.85 32.05,32.81 74.86,49.21 128.41,49.21 54.31,0 97.49,-16.4 129.54,-49.21 32.05,-32.81 48.08,-79.76 48.08,-140.85l0 -464.99 162.92 0 0 459.33c0,110.12 -32.06,195.73 -96.17,256.82 -63.36,61.09 -144.81,91.64 -244.38,91.64zm1000.58 -661.85l0 -145.95 664.11 0 0 145.95 -251.16 0 0 646.01 -162.92 0 0 -646.01 -250.03 0zm1502.91 646.01l-161.79 0 0 -791.96 161.79 0 0 791.96zm938.36 -210.43c46.77,49.03 105.22,73.54 175.36,73.54 69.39,0 127.47,-24.51 174.23,-73.54 46.76,-49.03 70.14,-110.87 70.14,-185.54 0,-74.67 -23.38,-136.52 -70.14,-185.54 -46.76,-49.03 -104.84,-73.54 -174.23,-73.54 -70.15,0 -128.6,24.51 -175.36,73.54 -46.01,48.27 -69.01,110.12 -69.01,185.54 0,75.43 23.01,137.27 69.01,185.54zm-235.32 -185.54c0,-116.15 38.85,-213.45 116.53,-291.89 77.69,-79.95 175.74,-119.92 294.15,-119.92 117.66,0 215.33,39.97 293.02,119.92 78.44,79.95 117.67,177.25 117.67,291.89 0,113.89 -39.22,211.19 -117.67,291.89 -77.69,79.95 -175.36,119.92 -293.02,119.92 -118.42,0 -216.47,-39.97 -294.15,-119.92 -77.69,-79.95 -116.53,-177.25 -116.53,-291.89zm1678.27 395.98l-159.52 0 0 -791.96 139.16 0 399.37 506.85 0 -506.85 158.39 0 0 791.96 -134.63 0 -402.77 -509.12 0 509.12zm1525.54 15.84c-119.17,0 -219.48,-28.28 -300.94,-84.85l0 -169.71c33.19,28.66 76.93,53.55 131.24,74.67 55.06,20.37 109.37,30.55 162.92,30.55 44.5,0 81.08,-8.11 109.74,-24.33 28.66,-16.22 42.99,-38.66 42.99,-67.32 0,-30.92 -13.57,-52.8 -40.73,-65.62 -11.31,-6.79 -26.4,-13.57 -45.26,-20.37l-27.15 -9.05 -63.36 -19.23 -58.83 -19.24c-8.3,-2.26 -26.02,-8.67 -53.18,-19.23 -23.38,-9.05 -40.35,-16.97 -50.91,-23.76 -39.22,-27.15 -64.11,-50.16 -74.67,-69.01 -18.1,-36.2 -27.15,-73.16 -27.15,-110.87 0,-70.14 26.77,-125.2 80.33,-165.18 53.55,-40.73 126.33,-61.09 218.35,-61.09 92.77,0 179.13,21.87 259.08,65.62l0 158.39c-80.71,-49.78 -166.31,-74.67 -256.82,-74.67 -89.75,0 -134.63,26.02 -134.63,78.06 0,22.63 13.95,40.73 41.86,54.31 16.59,9.05 38.09,16.97 64.49,23.76 35.45,9.8 64.11,18.1 85.99,24.89 65.62,20.37 122.94,47.9 171.97,82.59 52.8,36.96 79.19,92.02 79.19,165.18 0,76.18 -29.79,136.14 -89.37,179.89 -59.59,43.75 -134.63,65.62 -225.15,65.62z"/>
   </g>
   <path class="fil1" d="M3830.86 9508.49c0,39.8 7.16,77.9 20.23,113.15l-341.67 579.53c-288.6,5.83 -438.74,5.38 -521.11,-42.17l-0.81 0c-87.52,-50.52 -168.5,-197.89 -330.46,-492.64 -61.27,-111.5 -133.81,-243.5 -244.64,-435.48 -97.93,-169.63 -183.45,-310.75 -255.65,-429.93 -173.4,-286.18 -260.1,-429.3 -260.1,-533.35 0,-76.84 47.29,-174.96 141.84,-336.3l864.19 1485.9c-13.77,36.19 -21.33,75.46 -21.33,116.48 0,90.44 36.66,172.33 95.94,231.58 59.27,59.26 141.14,95.94 231.59,95.94 90.42,0 172.31,-36.68 231.59,-95.94 59.25,-59.25 95.93,-141.14 95.93,-231.58 0,-90.43 -36.68,-172.31 -95.93,-231.59 -48.12,-48.12 -111.12,-81.31 -181.51,-92.13l-1221.5 -2080.05c-97.73,168.6 -170.58,288.84 -232.65,391.27 -214.29,353.69 -321.44,530.54 -321.44,746.42 0,215.91 107.15,392.75 321.44,746.42 70.38,116.17 153.71,253.69 250.81,421.86 84.2,145.84 168.56,299.37 239.82,429.02 198.11,360.57 297.28,541.06 486.43,650.5l-0.21 0.37c188.17,108.63 394.41,104.27 806.88,95.55 35.96,-0.76 73.86,-1.55 115.5,-2.31l136.7 -235.02 1.08 0.16 312.13 -540.53 2.05 0.02c179.57,0 325.15,-145.58 325.15,-325.15 0,-179.58 -145.58,-325.16 -325.15,-325.16 -179.58,0 -325.15,145.58 -325.15,325.16zm1448.14 -1646.05c34.27,-19.79 63.57,-44.88 87.48,-73.64l673.29 6.16c149.35,247 224.04,377.26 224.04,472.36l0.42 0.71c0,101.06 -87.14,244.9 -261.43,532.52 -65.92,108.79 -143.96,237.6 -254.81,429.61 -97.94,169.62 -177.38,314.23 -244.51,436.35 -161.13,293.26 -241.72,439.9 -331.82,491.94 -66.54,38.4 -175.18,46.53 -362.18,45.3l854.73 -1491.36c38.23,-6.15 76.01,-19.25 111.54,-39.77 78.32,-45.21 130.9,-117.92 152.59,-198.89 21.69,-80.95 12.52,-170.21 -32.72,-248.53 -45.21,-78.31 -117.91,-130.89 -198.87,-152.58 -80.96,-21.71 -170.21,-12.52 -248.54,32.7 -78.31,45.21 -130.9,117.92 -152.59,198.89 -17.59,65.71 -14.87,136.88 10.98,203.24l-1190.63 2097.88c194.87,0.33 335.44,3.3 455.17,5.83 413.45,8.74 620.18,13.11 807.15,-94.84 186.97,-107.94 286.55,-289.16 485.71,-651.58 65.41,-119.03 142.83,-259.97 239.93,-428.13 84.19,-145.83 174.99,-295.68 251.64,-422.19 213.2,-351.87 319.92,-528 320.13,-746.52l0.42 0c0,-217.28 -106.92,-393.71 -320.69,-746.56 -18.63,-30.75 -38.27,-63.19 -59.73,-98.89l-271.9 -0.86 -0.39 -1 -624.09 -0.05 -1.26 -2.28c-89.8,-155.51 -288.66,-208.81 -444.18,-119.02 -155.51,89.79 -208.8,288.65 -119.02,444.17 89.8,155.51 288.66,208.8 444.18,119.02zm449.77 557.82c-8.02,29.87 -27.43,56.71 -56.34,73.42 -28.93,16.68 -61.89,20.07 -91.76,12.08 -29.87,-8.01 -56.7,-27.42 -73.4,-56.34 -16.69,-28.91 -20.09,-61.86 -12.09,-91.74 8.02,-29.88 27.43,-56.73 56.34,-73.43 28.92,-16.68 61.86,-20.07 91.75,-12.07 29.87,8 56.7,27.42 73.4,56.33 16.69,28.9 20.09,61.85 12.09,91.74zm-2599.36 -988.91c-34.31,-19.79 -70.72,-32.63 -107.61,-38.96l-331.05 -585.67c139.25,-252.85 214.72,-382.67 297.07,-430.22l0.41 -0.69c87.53,-50.55 255.65,-46.99 591.88,-39.88 127.19,2.71 277.77,5.87 499.45,5.89 195.87,0 360.84,-3.5 500.16,-6.44 334.55,-7.07 501.83,-10.62 591.94,41.41 66.54,38.4 127.89,128.42 220.32,290.98l-1718.91 5.48c-24.45,-30.02 -54.69,-56.2 -90.21,-76.7 -78.34,-45.22 -167.58,-54.41 -248.54,-32.7 -80.95,21.68 -153.65,74.25 -198.87,152.58 -45.21,78.31 -54.41,167.58 -32.7,248.53 21.69,80.97 74.26,153.68 152.59,198.89 78.31,45.21 167.57,54.4 248.53,32.7 65.7,-17.61 125.99,-55.57 170.53,-111.11l2412.13 -17.83c-97.16,-168.94 -164.84,-292.14 -222.53,-397.11 -199.15,-362.43 -298.74,-543.65 -485.71,-651.59 -186.97,-107.94 -393.7,-103.58 -807.15,-94.83 -135.77,2.87 -296.54,6.28 -490.73,6.28 -168.39,-0.02 -343.55,-3.72 -491.45,-6.84 -411.31,-8.71 -617.21,-13.05 -806.57,96.03l-0.2 -0.34c-188.18,108.62 -287.51,289.41 -486.19,650.98 -17.3,31.5 -35.59,64.73 -55.76,101.18l135.19 235.89 -0.69 0.85 311.79 540.12 -1.3 2.16c-89.78,155.51 -36.49,354.39 119.03,444.18 155.5,89.78 354.38,36.49 444.17,-119.02 89.78,-155.51 36.49,-354.38 -119.01,-444.17zm258.4 -667.94c29.87,-8 62.81,-4.6 91.74,12.08 28.9,16.7 48.34,43.55 56.33,73.42 8.01,29.88 4.61,62.83 -12.09,91.73 -16.68,28.93 -43.53,48.34 -73.4,56.34 -29.87,8.01 -62.84,4.61 -91.74,-12.07 -28.93,-16.7 -48.34,-43.55 -56.34,-73.43 -8.02,-29.87 -4.62,-62.82 12.08,-91.73 16.69,-28.9 43.52,-48.33 73.42,-56.34zm-264.41 2855.77c-21.88,-21.88 -35.4,-52.12 -35.4,-85.5 0,-33.39 13.52,-63.64 35.4,-85.49 21.87,-21.88 52.1,-35.42 85.5,-35.42 33.38,0 63.62,13.54 85.49,35.42 21.85,21.85 35.4,52.1 35.4,85.49 0,33.38 -13.55,63.62 -35.4,85.5 -21.88,21.85 -52.12,35.4 -85.49,35.4 -33.39,0 -63.63,-13.55 -85.5,-35.4z"/>
  </g>
 </g>
</svg>
